<svg id="Capa_1" enable-background="new 0 0 512 512" height="512" viewBox="0 0 512 512" width="512" xmlns="http://www.w3.org/2000/svg" xmlns:xlink="http://www.w3.org/1999/xlink"><linearGradient id="SVGID_1_" gradientUnits="userSpaceOnUse" x1="256" x2="256" y1="512" y2="0"><stop offset="0" stop-color="#addcff"/><stop offset=".5028" stop-color="#eaf6ff"/><stop offset="1" stop-color="#eaf6ff"/></linearGradient><linearGradient id="SVGID_2_" gradientUnits="userSpaceOnUse" x1="256" x2="256" y1="105" y2="407"><stop offset="0" stop-color="#5558ff"/><stop offset="1" stop-color="#00c0ff"/></linearGradient><g><g><circle cx="256" cy="256" fill="url(#SVGID_1_)" r="256"/></g><g><g><path d="m226.421 273.076 29.581 17.076 29.577-17.078v-34.15l-29.581-17.076-29.577 17.078zm-36.139-89.164c-19.596 17.881-31.988 43.532-31.988 72.088 0 .573.076 1.127.086 1.697l79.85-46.107zm95.297-21.013c-9.338-2.974-19.269-4.605-29.579-4.605-18.373 0-35.517 5.194-50.216 14.051l79.795 46.063zm17.765 7.699v92.218l48.048-27.744c-6.078-27.712-23.927-51.046-48.048-64.474zm-47.344-65.598c-83.255 0-151 67.737-151 151s67.745 151 151 151 151-67.737 151-151-67.745-151-151-151zm0 266.471c-63.194 0-115.471-51.966-115.471-115.471 0-64.469 52.727-115.471 115.471-115.471 63.593 0 115.471 52.312 115.471 115.471 0 63.668-51.803 115.471-115.471 115.471zm97.62-117.168-79.85 46.107 47.948 27.678c19.596-17.881 31.988-43.532 31.988-72.088 0-.573-.076-1.127-.086-1.697zm-144.964 87.099v-92.218l-48.048 27.744c6.078 27.712 23.927 51.046 48.048 64.474zm17.765-47.81v55.509c9.338 2.974 19.269 4.605 29.579 4.605 18.373 0 35.517-5.194 50.216-14.051-4.855-2.803-84.002-48.492-79.795-46.063z" fill="url(#SVGID_2_)"/></g></g></g></svg>