<svg enable-background="new 0 0 32 32" height="512" viewBox="0 0 32 32" width="512" xmlns="http://www.w3.org/2000/svg"><path d="m26 32h-20c-3.314 0-6-2.686-6-6v-20c0-3.314 2.686-6 6-6h20c3.314 0 6 2.686 6 6v20c0 3.314-2.686 6-6 6z" fill="#ffe6e2"/><path d="m26 32h-20c-3.314 0-6-2.686-6-6v-20c0-3.314 2.686-6 6-6h20c3.314 0 6 2.686 6 6v20c0 3.314-2.686 6-6 6z" fill="#ffe6e2"/><path d="m22.803 15.655c.38-.38.589-.881.589-1.411 0-.535-.209-1.038-.589-1.418l-3.268-3.268c-.745-.763-2.096-.764-2.835-.006l-6.827 6.828c-.383.374-.594.88-.594 1.424 0 .54.211 1.043.589 1.411l1.249 1.249h-1.004c-.368 0-.667.299-.667.667s.299.667.667.667h12c.368 0 .667-.299.667-.667s-.299-.667-.667-.667h-4.117zm-5.154-5.166c.155-.159.337-.192.463-.192.129 0 .314.033.475.198l3.273 3.273c.128.128.198.297.198.475 0 .174-.07.341-.198.469l-2.001 2.001-4.217-4.218z" fill="#fc573b"/></svg>