<svg enable-background="new 0 0 32 32" height="512" viewBox="0 0 32 32" width="512" xmlns="http://www.w3.org/2000/svg"><g id="BG"><path d="m26 32h-20c-3.314 0-6-2.686-6-6v-20c0-3.314 2.686-6 6-6h20c3.314 0 6 2.686 6 6v20c0 3.314-2.686 6-6 6z" fill="#f5e6fe"/></g><g id="bold"><g fill="#d9a4fc"><path d="m12 14c-.368 0-.667-.299-.667-.667v-.667c0-.368.298-.666.667-.666s.667.299.667.667v.667c0 .367-.299.666-.667.666z"/><path d="m19.333 14c-.368 0-.667-.299-.667-.667v-.667c0-.368.298-.667.667-.667.369.001.667.299.667.668v.667c0 .367-.298.666-.667.666z"/><path d="m14.667 18h-.667c-.368 0-.667-.299-.667-.667s.298-.667.667-.667h.667c.368 0 .667-.299.667-.667v-3.333c-.001-.368.298-.666.666-.666s.667.299.667.667v3.333c0 1.103-.897 2-2 2z"/><path d="m15.667 21.333c-1.189 0-2.303-.637-2.908-1.661-.187-.317-.081-.726.236-.913.316-.188.725-.082.913.236.366.62 1.04 1.005 1.759 1.005s1.393-.385 1.759-1.005c.187-.318.595-.423.913-.236.317.187.423.596.236.913-.605 1.025-1.719 1.661-2.908 1.661z"/></g><path d="m23.333 13.333c-.368 0-.667-.299-.667-.667v-2.666c0-.368-.299-.667-.667-.667h-2.667c-.368 0-.667-.299-.667-.667s.3-.666.668-.666h2.667c1.103 0 2 .897 2 2v2.667c0 .368-.298.666-.667.666z" fill="#be63f9"/><path d="m8.667 13.333c-.369 0-.667-.298-.667-.666v-2.667c0-1.103.897-2 2-2h2.667c.368 0 .667.299.667.667s-.299.667-.667.667h-2.667c-.368 0-.667.299-.667.667v2.667c0 .367-.298.665-.666.665z" fill="#be63f9"/><path d="m22 24h-2.667c-.368 0-.667-.299-.667-.667s.299-.667.667-.667h2.667c.368 0 .667-.299.667-.667v-2.667c0-.368.299-.667.667-.667s.666.3.666.668v2.667c0 1.103-.897 2-2 2z" fill="#be63f9"/><path d="m12.667 24h-2.667c-1.103 0-2-.897-2-2v-2.667c0-.368.299-.667.667-.667s.667.299.667.667v2.667c0 .368.299.667.667.667h2.667c.368 0 .667.299.667.667s-.3.666-.668.666z" fill="#be63f9"/></g></svg>