<svg id="bold" enable-background="new 0 0 32 32" height="512" viewBox="0 0 32 32" width="512" xmlns="http://www.w3.org/2000/svg"><path d="m26 32h-20c-3.314 0-6-2.686-6-6v-20c0-3.314 2.686-6 6-6h20c3.314 0 6 2.686 6 6v20c0 3.314-2.686 6-6 6z" fill="#ffe6e2"/><path d="m20.86 16.02c-.527.2-1.1.313-1.693.313-2.667 0-4.833-2.167-4.833-4.833 0-1.373.573-2.62 1.5-3.5h-6c-1.014 0-1.834.82-1.834 1.833v12.333c0 1.014.82 1.834 1.833 1.834h9.667c1.013 0 1.833-.82 1.833-1.833v-5.673zm-8.693 3.647h-.333v2.5c0 .276-.224.5-.5.5s-.5-.224-.5-.5v-2.5h-.334c-.276 0-.5-.224-.5-.5s.224-.5.5-.5h1.667c.276 0 .5.224.5.5s-.224.5-.5.5zm3.77 2.257c.134.242.047.546-.194.68-.077.043-.16.063-.243.063-.175 0-.346-.093-.438-.257l-.396-.713-.396.713c-.091.164-.262.257-.438.257-.082 0-.166-.02-.243-.063-.242-.134-.328-.438-.194-.68l.698-1.257-.698-1.257c-.134-.242-.047-.546.194-.68s.546-.047.68.194l.396.713.396-.713c.134-.242.439-.329.68-.194.242.134.328.438.194.68l-.698 1.257zm2.896-2.257h-.333v2.5c0 .276-.224.5-.5.5s-.5-.224-.5-.5v-2.5h-.333c-.276 0-.5-.224-.5-.5s.224-.5.5-.5h1.667c.276 0 .5.224.5.5s-.225.5-.501.5z" fill="#fc573b"/><g fill="#fd907e"><path d="m19.167 15c-1.93 0-3.5-1.57-3.5-3.5s1.57-3.5 3.5-3.5 3.5 1.57 3.5 3.5-1.57 3.5-3.5 3.5zm0-5.667c-1.195 0-2.167.972-2.167 2.167s.972 2.167 2.167 2.167 2.167-.972 2.167-2.167-.973-2.167-2.167-2.167z"/><path d="m23.333 16.333c-.171 0-.341-.065-.471-.195l-2.167-2.167c-.26-.26-.26-.682 0-.943.26-.26.682-.26.943 0l2.167 2.167c.26.26.26.682 0 .943-.131.13-.301.195-.472.195z"/></g></svg>