<?xml version="1.0" encoding="iso-8859-1"?>
<!-- Generator: Adobe Illustrator 19.0.0, SVG Export Plug-In . SVG Version: 6.00 Build 0)  -->
<svg version="1.1" id="Capa_1" xmlns="http://www.w3.org/2000/svg" xmlns:xlink="http://www.w3.org/1999/xlink" x="0px" y="0px"
	 viewBox="0 0 512 512" style="enable-background:new 0 0 512 512;" xml:space="preserve">
<circle style="fill:#F44336;" cx="256" cy="256" r="106.667"/>
<g>
	<path style="fill:#455A64;" d="M10.667,170.667c5.891,0,10.667-4.776,10.667-10.667V53.333c0-17.673,14.327-32,32-32H160
		c5.891,0,10.667-4.776,10.667-10.667S165.891,0,160,0H53.333C23.878,0,0,23.878,0,53.333V160
		C0,165.891,4.776,170.667,10.667,170.667z"/>
	<path style="fill:#455A64;" d="M458.667,0H352c-5.891,0-10.667,4.776-10.667,10.667S346.109,21.333,352,21.333h106.667
		c17.673,0,32,14.327,32,32V160c0,5.891,4.776,10.667,10.667,10.667S512,165.891,512,160V53.333C512,23.878,488.122,0,458.667,0z"/>
	<path style="fill:#455A64;" d="M160,490.667H53.333c-17.673,0-32-14.327-32-32V352c0-5.891-4.776-10.667-10.667-10.667
		S0,346.109,0,352v106.667C0,488.122,23.878,512,53.333,512H160c5.891,0,10.667-4.776,10.667-10.667S165.891,490.667,160,490.667z"
		/>
	<path style="fill:#455A64;" d="M501.333,341.333c-5.891,0-10.667,4.776-10.667,10.667v106.667c0,17.673-14.327,32-32,32H352
		c-5.891,0-10.667,4.776-10.667,10.667S346.109,512,352,512h106.667C488.122,512,512,488.122,512,458.667V352
		C512,346.109,507.224,341.333,501.333,341.333z"/>
</g>
<g>
</g>
<g>
</g>
<g>
</g>
<g>
</g>
<g>
</g>
<g>
</g>
<g>
</g>
<g>
</g>
<g>
</g>
<g>
</g>
<g>
</g>
<g>
</g>
<g>
</g>
<g>
</g>
<g>
</g>
</svg>
