<svg enable-background="new 0 0 32 32" height="512" viewBox="0 0 32 32" width="512" xmlns="http://www.w3.org/2000/svg"><g id="BG"><path d="m26 32h-20c-3.314 0-6-2.686-6-6v-20c0-3.314 2.686-6 6-6h20c3.314 0 6 2.686 6 6v20c0 3.314-2.686 6-6 6z" fill="#f5e6fe"/></g><g id="bold"><path d="m23.333 13.797c-.368 0-.667-.299-.667-.667v-3.16c0-.351-.286-.637-.637-.637h-3.16c-.368 0-.667-.299-.667-.667s.299-.666.668-.666h3.16c1.087 0 1.97.884 1.97 1.97v3.16c0 .369-.298.667-.667.667z" fill="#be63f9"/><path d="m8.667 13.797c-.369 0-.667-.298-.667-.666v-3.161c0-1.086.883-1.97 1.97-1.97h3.16c.368 0 .667.299.667.667s-.298.667-.667.667h-3.16c-.351 0-.637.286-.637.637v3.16c0 .368-.298.666-.666.666z" fill="#be63f9"/><path d="m22.03 24h-3.16c-.368 0-.667-.299-.667-.667s.298-.667.667-.667h3.16c.351 0 .637-.286.637-.637v-3.16c0-.368.298-.667.667-.667s.666.299.666.667v3.16c0 1.087-.883 1.971-1.97 1.971z" fill="#be63f9"/><path d="m13.13 24h-3.16c-1.087 0-1.97-.884-1.97-1.97v-3.16c0-.368.298-.667.667-.667s.667.299.667.667v3.16c0 .351.286.637.637.637h3.16c.368 0 .667.299.667.667s-.299.666-.668.666z" fill="#be63f9"/><g fill="#d9a4fc"><path d="m14.318 15.439h-3.318c-.368 0-.667-.299-.667-.667v-3.772c0-.368.298-.667.667-.667h3.318c.368 0 .667.299.667.667v3.773c0 .368-.298.666-.667.666zm-2.651-1.333h1.985v-2.439h-1.985z"/><path d="m21 21.667h-3.167c-.368 0-.667-.299-.667-.667v-2.121c0-.368.298-.667.667-.667.368 0 .667.299.667.667v1.454h1.833v-2h-.788c-.368 0-.667-.299-.667-.667s.299-.666.668-.666h1.454c.368 0 .667.299.667.667v3.333c0 .368-.298.667-.667.667z"/><path d="m21 14.394h-2.727c-.368 0-.667-.299-.667-.667v-2.727c0-.368.298-.667.667-.667h2.727c.368 0 .667.299.667.667v2.727c0 .368-.298.667-.667.667zm-2.061-1.333h1.394v-1.394h-1.394z"/><path d="m16.318 17.424h-5.318c-.368 0-.667-.299-.667-.667s.298-.667.667-.667h4.652v-4.485c0-.368.298-.667.667-.667.368 0 .667.299.667.667v5.151c-.001.37-.299.668-.668.668z"/><path d="m18.167 17.257c-.368 0-.667-.299-.667-.667v-.909c0-.368.298-.667.667-.667h3c.368 0 .667.299.667.667s-.298.667-.667.667h-2.333v.242c-.001.369-.299.667-.667.667z"/><path d="m16.015 20.8c-.368 0-.667-.299-.667-.667v-1.515c0-.368.298-.667.667-.667.368 0 .667.299.667.667v1.515c0 .369-.299.667-.667.667z"/><path d="m14.167 21.667h-3.167c-.368 0-.667-.299-.667-.667v-2.424c0-.368.298-.667.667-.667h3.167c.368 0 .667.299.667.667v2.424c-.001.368-.299.667-.667.667zm-2.5-1.334h1.833v-1.091h-1.833z"/></g></g></svg>