<svg enable-background="new 0 0 32 32" height="512" viewBox="0 0 32 32" width="512" xmlns="http://www.w3.org/2000/svg"><path d="m26 32h-20c-3.314 0-6-2.686-6-6v-20c0-3.314 2.686-6 6-6h20c3.314 0 6 2.686 6 6v20c0 3.314-2.686 6-6 6z" fill="#e3f8fa"/><g fill="#8ce1eb"><path d="m11.336 8.665v2.667h-1.333v-2.667c0-.367.293-.667.667-.667.366 0 .666.3.666.667z"/><path d="m11.336 14.665v8.667c0 .367-.3.667-.667.667-.373 0-.667-.3-.667-.667v-8.667z"/><path d="m22.834 11.333h-.833v-2.667c0-.368-.299-.666-.667-.666s-.667.299-.667.667v2.667h-.833c-.643 0-1.167.523-1.167 1.167v1c0 .643.523 1.167 1.167 1.167h.833v8.667c0 .368.298.667.667.667.368 0 .667-.299.667-.667v-8.667h.833c.643 0 1.167-.523 1.167-1.167v-1c0-.645-.524-1.168-1.167-1.168z"/><path d="m17.501 18h-.833v-9.334c-.001-.368-.299-.666-.667-.666s-.667.299-.667.667v9.333h-.833c-.643 0-1.167.523-1.167 1.167v1c0 .643.523 1.167 1.167 1.167h.833v2c0 .368.298.667.667.667.368 0 .667-.299.667-.667v-2h.833c.643 0 1.167-.523 1.167-1.167v-1c-.001-.644-.524-1.167-1.167-1.167z"/></g><g fill="#26c6da"><path d="m13.336 12.498v1c0 .647-.527 1.167-1.167 1.167h-3c-.647 0-1.167-.52-1.167-1.167v-1c0-.64.52-1.167 1.167-1.167h3c.64 0 1.167.527 1.167 1.167z"/><path d="m18.667 19.165v1c0 .647-.527 1.167-1.167 1.167h-3c-.647 0-1.167-.52-1.167-1.167v-1c0-.64.52-1.167 1.167-1.167h3c.641 0 1.167.527 1.167 1.167z"/><path d="m24.001 12.498v1c0 .647-.527 1.167-1.167 1.167h-3c-.647 0-1.167-.52-1.167-1.167v-1c0-.64.52-1.167 1.167-1.167h3c.64 0 1.167.527 1.167 1.167z"/></g></svg>