<svg height="512pt" viewBox="0 0 512 512" width="512pt" xmlns="http://www.w3.org/2000/svg"><path d="m416 512h-320c-53.023438 0-96-42.976562-96-96v-320c0-53.023438 42.976562-96 96-96h320c53.023438 0 96 42.976562 96 96v320c0 53.023438-42.976562 96-96 96zm0 0" fill="#e3f8fa"/><path d="m128 216c0 4.414062 3.585938 8 8 8h69.328125c3.230469 0 6.160156-1.953125 7.390625-4.945312 1.234375-2.992188.5625-6.429688-1.742188-8.71875l-29.984374-29.984376c19.648437-19.519531 46.273437-31.023437 74.992187-31.023437 58.816406 0 106.671875 47.855469 106.671875 106.671875 0 5.886719 4.769531 10.671875 10.671875 10.671875s10.671875-4.785156 10.671875-10.671875c0-70.574219-57.425781-128-128-128-34.511719 0-66.609375 13.695312-90.191406 37.167969l-24.160156-24.160157c-2.289063-2.289062-5.726563-2.976562-8.703126-1.726562-2.992187 1.230469-4.945312 4.144531-4.945312 7.390625zm0 0" fill="#8ce1eb"/><path d="m384 296c0-4.414062-3.585938-8-8-8h-69.328125c-3.230469 0-6.160156 1.953125-7.390625 4.945312-1.234375 2.992188-.5625 6.429688 1.742188 8.71875l29.984374 29.984376c-19.648437 19.519531-46.273437 31.023437-74.992187 31.023437-58.816406 0-106.671875-47.855469-106.671875-106.671875 0-5.886719-4.769531-10.671875-10.671875-10.671875s-10.671875 4.785156-10.671875 10.671875c0 70.574219 57.425781 128 128 128 34.496094 0 66.609375-13.695312 90.175781-37.167969l24.160157 24.160157c1.535156 1.535156 3.566406 2.335937 5.664062 2.335937 1.023438 0 2.078125-.191406 3.054688-.609375 2.992187-1.230469 4.945312-4.144531 4.945312-7.390625zm0 0" fill="#26c6da"/></svg>