<svg enable-background="new 0 0 32 32" height="512" viewBox="0 0 32 32" width="512" xmlns="http://www.w3.org/2000/svg"><g id="BG"><path d="m26 32h-20c-3.314 0-6-2.686-6-6v-20c0-3.314 2.686-6 6-6h20c3.314 0 6 2.686 6 6v20c0 3.314-2.686 6-6 6z" fill="#fff9dd"/></g><g id="bold"><path d="m20.5 14h-3.604l.6-5.068c.002-.02.004-.079.004-.098 0-.46-.374-.834-.833-.834-.261 0-.51.125-.681.354l-5.153 7.646c-.107.143-.167.321-.167.5 0 .46.374.833.833.833h2.944l-.608 5.747c-.002.018-.003.068-.003.086 0 .46.374.833.833.833.261 0 .51-.125.676-.347l5.824-8.32c.107-.143.167-.321.167-.5.001-.458-.372-.832-.832-.832z" fill="#ffd200"/></g></svg>