<svg enable-background="new 0 0 32 32" height="512" viewBox="0 0 32 32" width="512" xmlns="http://www.w3.org/2000/svg"><g id="BG"><path d="m26 32h-20c-3.314 0-6-2.686-6-6v-20c0-3.314 2.686-6 6-6h20c3.314 0 6 2.686 6 6v20c0 3.314-2.686 6-6 6z" fill="#f5e6fe"/></g><g id="bold"><g fill="#be63f9"><path d="m18.959 18.487 2.208-3.154c.107-.143.167-.321.167-.5 0-.46-.374-.833-.833-.833h-3.604l.6-5.068c.002-.02.004-.079.004-.098-.001-.46-.375-.834-.834-.834-.261 0-.51.125-.681.354l-2.882 4.278z"/><path d="m11.964 14.321-1.131 1.679c-.107.143-.167.321-.167.5 0 .46.374.833.833.833h2.944l-.608 5.747c-.002.018-.003.068-.003.086 0 .46.374.833.833.833.261 0 .51-.125.676-.347l2.451-3.502z"/></g><g><path d="m23.333 24c-.171 0-.341-.065-.471-.195l-14.667-14.667c-.26-.26-.26-.682 0-.943s.682-.26.943 0l14.667 14.667c.26.26.26.682 0 .943-.13.13-.301.195-.472.195z" fill="#d9a4fc"/></g></g></svg>